<?xml version="1.0" encoding="UTF-8" standalone="no"?>
<!-- Created with Inkscape (http://www.inkscape.org/) -->

<svg
   xmlns:dc="http://purl.org/dc/elements/1.1/"
   xmlns:cc="http://creativecommons.org/ns#"
   xmlns:rdf="http://www.w3.org/1999/02/22-rdf-syntax-ns#"
   xmlns:svg="http://www.w3.org/2000/svg"
   xmlns="http://www.w3.org/2000/svg"
   xmlns:sodipodi="http://sodipodi.sourceforge.net/DTD/sodipodi-0.dtd"
   xmlns:inkscape="http://www.inkscape.org/namespaces/inkscape"
   id="svg2985"
   version="1.1"
   inkscape:version="0.48.3.1 r9886"
   width="22"
   height="46"
   sodipodi:docname="stecknadel.svg">
  <metadata
     id="metadata2991">
    <rdf:RDF>
      <cc:Work
         rdf:about="">
        <dc:format>image/svg+xml</dc:format>
        <dc:type
           rdf:resource="http://purl.org/dc/dcmitype/StillImage" />
        <dc:title />
      </cc:Work>
    </rdf:RDF>
  </metadata>
  <defs
     id="defs2989" />
  <sodipodi:namedview
     pagecolor="#ffffff"
     bordercolor="#666666"
     borderopacity="1"
     objecttolerance="10"
     gridtolerance="10"
     guidetolerance="10"
     inkscape:pageopacity="0"
     inkscape:pageshadow="2"
     inkscape:window-width="1228"
     inkscape:window-height="871"
     id="namedview2987"
     showgrid="false"
     inkscape:zoom="7.7930663"
     inkscape:cx="13.752736"
     inkscape:cy="12.406314"
     inkscape:window-x="50"
     inkscape:window-y="24"
     inkscape:window-maximized="0"
     inkscape:current-layer="svg2985" />
  <g
     id="g3011"
     inkscape:export-filename="\\srsofaioi15496\xenusers$\vumaavat\Pictures\stecknadel1.png"
     inkscape:export-xdpi="90"
     inkscape:export-ydpi="90"
     transform="matrix(0.18739985,0,0,0.18739985,-47.725947,-14.917883)">
    <path
       transform="matrix(1.0280703,0,0,1.0074136,188.43881,-16.559503)"
       d="m 174.25979,162.95137 c 0,29.78889 -24.02483,53.93755 -53.66095,53.93755 -29.636125,0 -53.660951,-24.14866 -53.660951,-53.93755 0,-29.78889 24.024826,-53.93755 53.660951,-53.93755 29.63612,0 53.66095,24.14866 53.66095,53.93755 z"
       sodipodi:ry="53.937553"
       sodipodi:rx="53.66095"
       sodipodi:cy="162.95137"
       sodipodi:cx="120.59884"
       id="path3009"
       style="fill:#ff0000;fill-opacity:1;stroke:#ffffff;stroke-width:1.70000005;stroke-linejoin:round;stroke-miterlimit:4;stroke-opacity:1;stroke-dasharray:none;stroke-dashoffset:0"
       sodipodi:type="arc" />
    <g
       transform="translate(95.704581,76.342383)"
       id="g2995">
      <path
         sodipodi:nodetypes="ccssssscsscsscccsscccsscsscsscccsscccsscccscccsc"
         inkscape:connector-curvature="0"
         id="path3007"
         d="m 162.41039,247.62708 -0.52684,-1.37293 5.63131,-22.37707 c 3.09722,-12.3074 6.52869,-25.05382 7.62548,-28.32539 1.09679,-3.27158 2.36423,-7.77158 2.81654,-10 0.45231,-2.22843 2.68089,-10.80169 4.9524,-19.05169 2.27151,-8.25 5.50394,-21.75 7.18318,-30 l 3.05316,-15 0.78248,-3.48943 c 0.23807,-1.06169 -3.7147,-13.25666 -7.40401,-11.50106 l -6.80348,2.22266 0.10548,-11.446055 c 0.0677,-7.350633 -1.31928,-13.83672 -8.95985,-15.667425 l -1.65083,-5.714527 -3.0545,-7.462088 1.64775,-7.185484 1.61152,-4.048487 c 5.80028,-14.571564 13.3315,-16.408238 23.01878,-29.107362 l 7.44405,-4.902831 6.89359,-0.546487 8,-1.929501 7.03643,-0.149981 c 3.58451,-0.0764 8.48344,1.479229 11.94679,1.432974 l 6.01678,2.412762 4.7234,3.98232 c 2.48548,2.095524 3.80608,4.61072 7.23397,5.762963 l 6.10641,3.163658 1.55232,6.082081 c 0.92123,3.609437 2.68572,8.50324 6.00079,12.086691 l 2.23565,6.557815 -0.26271,6.787177 -0.2626,9.553206 0.20802,6.837671 c 8e-4,0.0263 -3.66256,7.183475 -4.35292,11.080089 l -3.73111,6.731851 -6.56875,6.01554 -4.90914,4.35594 -7.64745,3.57586 c -3.34184,1.56261 -8.73122,3.68957 -11.63675,4.49474 l -7.30854,2.02529 -6.80778,0 -5.97796,-0.5532 -5.67543,16.22885 c -2.18618,6.25135 -5.56863,16.73878 -8.81877,25.81378 -2.24395,7.78556 -6.73281,20.50202 -9.53687,28.05075 -11.12309,32.57978 -9.12094,27.13694 -19.41965,55.94925 l -0.99175,0 c -0.54545,0 -1.22882,-0.61782 -1.51859,-1.37292 z"
         style="fill:#808080" />
      <path
         inkscape:connector-curvature="0"
         id="path3005"
         d="m 168.64652,226.92708 c 1.15005,-5.90586 7.12827,-27.1756 9.25472,-32.92708 1.11841,-3.025 2.04816,-6.54571 2.06611,-7.82381 0.018,-1.27809 1.57293,-7.80309 3.4555,-14.5 6.78173,-24.12478 10.52669,-41.58682 10.54649,-49.17619 l 0.005,-2 -5.59797,-3.5 -5.59798,-3.5 -5.31541,-5.72719 -5.31541,-5.72718 -3.05712,-6.272816 C 167.40926,92.322766 165.29586,86.575 164.39424,83 l -1.63933,-6.5 0.4814,-9.215667 0.48141,-9.215667 4.16138,-8.672547 4.16138,-8.672548 6.38458,-6.260121 6.38459,-6.26012 7.34517,-3.571443 7.34518,-3.571443 8.64794,-1.571612 8.64794,-1.571611 9.53764,1.948412 9.53764,1.948412 6.05627,3.227962 6.05628,3.227962 6.85947,6.615015 6.85946,6.615016 3.09372,6.527806 c 7.20881,15.210745 7.09457,30.489 -0.34944,46.73387 l -3.32757,7.261674 -5.62798,5.90035 -5.62799,5.90035 -6.69802,3.51972 -6.69803,3.51971 -7.46357,2.06826 -7.46356,2.06826 -7.13611,0 -7.13611,0 -2.10213,5.76531 c -1.15618,3.17092 -2.77716,6.65842 -3.60219,7.75 l -1.50005,1.98469 -0.076,-3 -0.076,-3 -1.92975,3.65265 c -1.06136,2.00895 -4.68409,13.03395 -8.05051,24.5 -3.36642,11.46604 -6.52815,21.27485 -7.02606,21.79735 C 182.40738,184.9725 182,186.55987 182,187.97749 l 0,2.5775 -1.49532,2.13486 -1.49531,2.13486 -1.46025,6.94177 c -1.37952,6.558 -7.97615,26.99388 -9.06501,28.08274 -0.27772,0.27772 -0.20463,-1.03724 0.16241,-2.92214 z"
         style="fill:#e16453" />
      <path
         sodipodi:nodetypes="sscssscsscccccccccccccccccccccccccccccccccccsscccsscccsssscccsssscccccccccccccss"
         inkscape:connector-curvature="0"
         id="path3003"
         d="m 168.64652,226.92708 c 1.15005,-5.90586 7.12827,-27.1756 9.25472,-32.92708 1.11841,-3.025 2.04816,-6.54571 2.06611,-7.82381 0.018,-1.27809 1.57391,-7.80309 3.45767,-14.5 5.33244,-18.95719 8.27195,-31.43828 9.5442,-40.52441 0.64291,-4.59152 1.39437,-8.93571 1.66991,-9.65376 l 0.50098,-1.30554 -4.82005,-3.23554 c -2.65103,-1.77955 -7.22035,-5.53536 -10.15404,-8.34624 l -5.33399,-5.1107 -3.93317,-7.761926 -3.93317,-7.761926 -1.58618,-6.738074 -1.58618,-6.738074 0.51803,-7.885111 1.90105,-7.331904 2.25904,-7.922391 3.64205,-7.369185 5.53621,-5.979774 5.53622,-5.979774 5.85774,-3.558388 5.85774,-3.558388 5.55133,-1.164404 5.55132,-1.164403 4.39538,1.175583 4.39537,1.175583 5.58732,-1.171953 5.58732,-1.171953 6.26528,1.28641 6.26527,1.28641 4.80919,2.607963 4.80918,2.607962 6.34554,6.726602 6.34553,6.726603 3.65885,7.40318 3.65885,7.40318 0.53243,7.429076 0.53243,7.429076 -1.51294,7.109669 -1.51294,7.109669 -3.63866,7.390331 -3.63865,7.390331 -4.60267,4.69503 -4.60266,4.69503 -5.59174,2.93667 c -3.07546,1.61517 -9.41674,4.1746 -14.09174,5.68763 l -8.5,2.75096 -7.12878,0.49107 -7.12878,0.49107 -1.23264,4.12627 c -0.67794,2.26945 -2.17189,5.92627 -3.31988,8.12627 l -2.08725,4 -0.56557,-3 -0.56557,-3 -2.14144,5 c -1.17779,2.75 -4.69821,13.775 -7.82315,24.5 -3.12494,10.725 -6.09239,19.9275 -6.59432,20.45 C 182.41068,184.9725 182,186.55987 182,187.97749 l 0,2.5775 -1.49532,2.13486 -1.49531,2.13486 -1.46025,6.94177 c -1.37952,6.558 -7.97615,26.99388 -9.06501,28.08274 -0.27772,0.27772 -0.20463,-1.03724 0.16241,-2.92214 z m 49.46896,-174.985994 4.0358,-2.058913 1.48082,-3.544082 1.48081,-3.544082 L 222.80645,38.1502 220.5,33.506391 217.75,32.003195 215,30.5 l -2.75,1.537687 -2.75,1.537688 -1.89328,5.262414 -1.89327,5.262414 1.19928,4.00284 1.19928,4.002839 2.19399,0.883673 c 3.12806,1.259882 3.3407,1.231334 7.80948,-1.048469 z"
         style="fill:#e44a20" />
      <path
         inkscape:connector-curvature="0"
         id="path3001"
         d="m 168.64652,226.92708 c 1.15005,-5.90586 7.12827,-27.1756 9.25472,-32.92708 1.11841,-3.025 2.04816,-6.54571 2.06611,-7.82381 0.018,-1.27809 1.57391,-7.80309 3.45767,-14.5 5.44162,-19.34534 8.29951,-31.52642 9.55878,-40.74199 0.64377,-4.71119 1.5472,-9.17534 2.00763,-9.92033 l 0.83714,-1.35453 -6.7264,-4.72377 -6.72641,-4.72377 -4.68788,-5.21405 L 173,99.783693 l 0,-2.754342 0,-2.754342 -2.9269,-3.683022 -2.9269,-3.683021 -1.0731,-5.003704 C 165.4829,79.153225 165,73.615858 165,69.600002 l 0,-7.301555 1.18362,-3.399224 c 1.51947,-4.363782 9.10601,-16.101879 13.73043,-21.244109 l 3.58595,-3.987471 6.38977,-2.907151 6.38976,-2.90715 2.60022,0.652613 c 1.43012,0.358937 2.90762,1.150004 3.28334,1.757926 l 0.68312,1.105312 -0.53283,8.565404 -0.53282,8.565403 1.92521,5.5 1.9252,5.5 4.6674,0.855053 4.6674,0.855052 4.36063,-2.555501 4.36063,-2.5555 2.85823,-3.747334 2.85823,-3.747333 0.11772,-8.232223 0.11772,-8.232223 1.27084,-1.53127 c 0.69896,-0.842198 2.13919,-1.806874 3.20052,-2.143725 l 1.92967,-0.612455 4.97153,1.651275 4.97152,1.651275 5.7585,5.727853 5.75849,5.727854 5,8.380936 5,8.380937 0.34961,7.675381 0.3496,7.675382 -1.15701,5.573271 -1.157,5.573271 -2.9244,4.315012 -2.92441,4.315012 -0.0182,2.83 -0.0182,2.83 -5.75,5.67 c -5.97415,5.89103 -7.72781,6.98158 -15.25,9.48354 -8.65344,2.87823 -13.51519,4.70992 -15.42456,5.8113 l -1.92455,1.11013 -6.98294,0.63252 -6.98293,0.63251 -1.71406,5.05127 c -0.94274,2.7782 -2.53776,6.6032 -3.54449,8.5 l -1.83042,3.44873 -0.56226,-3 -0.56226,-3 -2.14144,5 c -1.17779,2.75 -4.69821,13.775 -7.82315,24.5 -3.12494,10.725 -6.09239,19.9275 -6.59432,20.45 C 182.41068,184.9725 182,186.55987 182,187.97749 l 0,2.5775 -1.49532,2.13486 -1.49531,2.13486 -1.46025,6.94177 c -1.37952,6.558 -7.97615,26.99388 -9.06501,28.08274 -0.27772,0.27772 -0.20463,-1.03724 0.16241,-2.92214 z"
         style="fill:#d12802" />
      <path
         sodipodi:nodetypes="ccsscccccccccsscccsccscscscccsscsscccsscsscssssssscccssssscccccsscccccccccssscs"
         inkscape:connector-curvature="0"
         id="path2999"
         d="m 170.30614,220.28861 c 4.68926,-19.83708 8.45367,-31.93506 13.11888,-48.61242 3.95069,-17.30204 6.05919,-27.84292 8.43916,-37.4911 1.11162,-4.50641 2.76723,-12.47678 3.36677,-13.79263 L 196.32103,118 l 1.8985,0 1.8985,0 -0.52488,0.84929 -0.52489,0.84928 0.74054,2.94415 4.05979,1.00792 2.15658,-1.94697 2.15658,-0.56396 -0.62015,2.47088 c -1.14032,4.54338 -4.54662,12.98741 -6.03049,14.94923 l -1.4675,1.94018 -0.076,-3 -2.01222,3.63847 -1.92975,5.58887 c -0.74155,2.14766 -4.36913,13.76336 -7.4973,24.2234 -4.09887,12.57115 -6.19543,19.72415 -9.61621,30.81574 -2.76253,7.94101 -7.78139,24.18029 -14.32046,42.46609 -3.93667,11.00846 5.32743,-22.05906 5.69447,-23.94396 z M 203.51298,117.1755 c -2.19287,-0.17847 -4.21787,-0.64089 -4.5,-1.0276 -0.79737,-1.09289 -8.23071,-4.0402 -10.99724,-4.36038 L 185.53148,111.5 183.51574,108.28245 181.5,105.0649 l -2,-0.64739 c -2.39538,-0.77536 -6.5,-4.38381 -6.5,-5.714269 l 0,-0.94813 1.52417,1.264945 c 2.66533,2.212034 2.43919,0.594795 -0.66985,-4.790253 L 170.83491,89 l -1.3984,0 -1.39841,0 -0.51096,-2.25 c -0.28103,-1.2375 -0.91736,-4.165139 -1.41407,-6.505864 l -0.90311,-4.255864 0.86603,-0.535236 c 0.47632,-0.294379 1.16578,-2.794873 1.53214,-5.556652 l 0.66612,-5.021417 2.26276,-3.334361 c 1.24451,-1.833899 2.56313,-4.280767 2.93026,-5.437484 0.78838,-2.48396 1.82491,-2.660921 3.53273,-0.603122 0.68469,0.825 2.02699,1.5 2.9829,1.5 0.9559,0 3.4883,1.200048 5.62755,2.666774 2.13925,1.466725 4.64106,2.730582 5.55957,2.80857 2.15773,0.183207 9.3125,4.960587 14.0158,9.358618 l 3.68582,3.446593 4.0406,-0.541959 4.04061,-0.541959 7.27357,-3.462825 C 228.22689,68.829258 234.875,65.794886 239,63.990763 c 4.125,-1.804123 8.175,-3.812794 9,-4.463713 6.4878,-5.118828 10.62113,-6.296122 11.57321,-3.296391 0.38939,1.226862 1.53487,3.364362 2.5455,4.75 l 1.83752,2.519341 1.57112,7.5 1.57111,7.5 -1.20468,4.341036 -1.20468,4.341037 -1.2986,0.49832 c -0.71423,0.274076 -2.26388,2.49233 -3.44368,4.929454 l -2.14507,4.431135 0.59554,1.551951 0.59554,1.551947 -1.0316,1.92756 -1.0316,1.92756 -1.98956,0 -1.98957,0 -0.8565,2.25 -0.8565,2.25 -4.36875,1.19233 c -2.40281,0.65577 -9.76875,1.91682 -16.36875,2.80232 -17.44329,2.34031 -17.7655,2.39942 -20.5,3.76076 L 207.5,117.5 z"
         style="fill:#564e4f" />
      <path
         sodipodi:nodetypes="scccccccccccccssscscccsscsscccsscsscssssssscccssssscccccsscccccccccssscs"
         inkscape:connector-curvature="0"
         id="path2997"
         d="M 200.35961,120.81378 196.03456,120.5 196.01726,119.25 196,118 l 2.05902,0 2.05901,0 -0.52488,0.84929 -0.52489,0.84928 2.40016,1.28453 2.40017,1.28453 2.0657,-0.5402 2.06571,-0.54019 0,1.28975 0,1.28975 -2.5266,-1.05665 c -2.97562,-1.24443 -0.75312,-1.57995 -5.11379,-1.89631 z m 3.15337,-3.63828 c -2.19287,-0.17847 -4.21787,-0.64089 -4.5,-1.0276 -0.79737,-1.09289 -8.23071,-4.0402 -10.99724,-4.36038 L 185.53148,111.5 183.51574,108.28245 181.5,105.0649 l -2,-0.64739 c -2.39538,-0.77536 -6.5,-4.38381 -6.5,-5.714269 l 0,-0.94813 1.52417,1.264945 c 2.66533,2.212034 2.43919,0.594795 -0.66985,-4.790253 L 170.83491,89 l -1.3984,0 -1.39841,0 -0.51096,-2.25 c -0.28103,-1.2375 -0.91736,-4.165139 -1.41407,-6.505864 l -0.90311,-4.255864 0.86603,-0.535236 c 0.47632,-0.294379 1.16578,-2.794873 1.53214,-5.556652 l 0.66612,-5.021417 2.26276,-3.334361 c 1.24451,-1.833899 2.56313,-4.280767 2.93026,-5.437484 0.78838,-2.48396 1.82491,-2.660921 3.53273,-0.603122 0.68469,0.825 2.02699,1.5 2.9829,1.5 0.9559,0 3.4883,1.200048 5.62755,2.666774 2.13925,1.466725 4.64106,2.730582 5.55957,2.80857 2.15773,0.183207 9.3125,4.960587 14.0158,9.358618 l 3.68582,3.446593 4.0406,-0.541959 4.04061,-0.541959 7.27357,-3.462825 C 228.22689,68.829258 234.875,65.794886 239,63.990763 c 4.125,-1.804123 8.175,-3.812794 9,-4.463713 6.4878,-5.118828 10.62113,-6.296122 11.57321,-3.296391 0.38939,1.226862 1.53487,3.364362 2.5455,4.75 l 1.83752,2.519341 1.57112,7.5 1.57111,7.5 -1.20468,4.341036 -1.20468,4.341037 -1.2986,0.49832 c -0.71423,0.274076 -2.26388,2.49233 -3.44368,4.929454 l -2.14507,4.431135 0.59554,1.551951 0.59554,1.551947 -1.0316,1.92756 -1.0316,1.92756 -1.98956,0 -1.98957,0 -0.8565,2.25 -0.8565,2.25 -4.36875,1.19233 c -2.40281,0.65577 -9.76875,1.91682 -16.36875,2.80232 -17.44329,2.34031 -17.7655,2.39942 -20.5,3.76076 L 207.5,117.5 z"
         style="fill:#b41402" />
    </g>
  </g>
</svg>
